<svg width="320" height="315" viewBox="0 0 320 315" fill="none" xmlns="http://www.w3.org/2000/svg">
<rect width="320" height="315" rx="45" fill="#171717"/>
<rect width="320" height="315" rx="45" fill="url(#paint0_linear)"/>
<path d="M177.131 151.101H144.109V152.918H177.131V151.101Z" fill="#71ADB5"/>
<path d="M177.131 162.887H144.109V164.705H177.131V162.887Z" fill="#71ADB5"/>
<path d="M197.497 83.7953C197.497 64.2449 181.018 48.3981 160.689 48.3981C140.36 48.3981 123.88 64.2449 123.88 83.7953C123.88 97.6322 132.153 109.583 144.187 115.405V138.121H177.039V115.474C189.154 109.681 197.497 97.6903 197.497 83.7953ZM176.227 113.842L175.186 114.34V115.474V136.304H146.04V115.405V114.275L145.006 113.773C133.117 108.02 125.733 96.5345 125.733 83.7953C125.733 65.2808 141.416 50.2154 160.689 50.2154C179.962 50.2154 195.645 65.2808 195.645 83.7953C195.645 96.6 188.205 108.111 176.227 113.842Z" fill="#71ADB5"/>
<path d="M163.156 56.8049L144.758 82.8758H163.253L148.763 112.265L180.736 75.0542H158.507L163.156 56.8049ZM176.75 76.8678L156.854 100.024L166.205 81.0549H148.296L158.892 66.0368L156.132 76.8678H176.75Z" fill="#71ADB5"/>
<path d="M48.4543 185.965H56.2304V232.995H53.437V188.631H51.1722V235.217H76.0104V228.107H63.7045V225.441H78.7283V237.883H48.4543V185.965ZM58.7218 185.965H61.4396V230.255H73.5945V232.995H58.7218V185.965ZM95.6017 186.039H103.529V232.921H100.811V188.705H98.3196V235.217H105.945V186.039H108.663V237.883H95.6017V186.039ZM147.732 237.883C143.051 237.883 138.672 236.698 134.671 234.328C126.517 229.662 121.384 220.849 121.384 212.035C121.384 207.443 122.592 203.074 125.008 199C129.839 190.779 138.144 186.113 147.732 186.113C154.3 186.113 160.642 188.557 165.474 192.927C165.625 193.001 165.851 193.149 166.077 193.371L166.606 193.964L164.719 195.89L163.662 194.853C159.358 190.927 153.696 188.78 147.732 188.78C143.504 188.78 139.578 189.816 135.954 191.89C128.631 196.038 124.102 203.74 124.102 212.035C124.102 216.183 125.159 220.034 127.272 223.589C131.5 230.773 139.276 235.217 147.732 235.217C152.866 235.217 156.791 233.81 163.209 229.736V212.702H146.675V210.036H165.851V231.144L165.323 231.588C158.603 236.106 153.772 237.883 147.732 237.883ZM147.732 232.847C143.957 232.847 140.409 231.884 137.162 230.033C130.519 226.255 126.442 219.442 126.442 212.035C126.442 208.258 127.423 204.703 129.311 201.444C133.161 195.001 139.956 191.15 147.732 191.15C152.035 191.15 156.187 192.483 160.189 195.075L162.152 196.556L163.133 197.519L157.697 203.296L155.282 201.444C153.092 199.889 150.525 199.074 147.732 199.074C145.467 199.074 143.278 199.667 141.239 200.778C137.087 203.148 134.596 207.295 134.596 212.035C134.596 214.257 135.2 216.405 136.407 218.405C138.748 222.478 142.976 224.922 147.732 224.922C149.619 224.922 151.356 224.552 152.941 223.737V222.552H146.675V214.998H160.793V228.181L159.056 229.514C155.659 231.81 152.186 232.847 147.732 232.847ZM147.732 193.816C144.41 193.816 141.315 194.63 138.446 196.26C132.708 199.519 129.16 205.518 129.16 212.035C129.16 215.294 129.99 218.331 131.651 221.071C134.973 226.7 141.088 230.181 147.732 230.181C151.431 230.181 154.753 229.218 157.546 227.366L158.075 226.922V217.664H149.393V219.886H155.659V225.441L154.904 225.811C152.413 226.996 150.072 227.589 147.732 227.589C145.014 227.589 142.372 226.848 139.88 225.441C134.822 222.552 131.878 217.738 131.878 212.035C131.878 209.221 132.557 206.629 133.992 204.185C136.785 199.445 141.919 196.482 147.732 196.482C150.978 196.482 154.074 197.445 156.867 199.296L157.395 199.667L159.207 197.741L158.603 197.297C155.357 195.001 151.733 193.816 147.732 193.816ZM177.742 186.039H190.878V203.148H188.085V188.78H180.46V235.143H188.085V220.849H190.878V237.883H177.742V186.039ZM182.951 190.927H185.669V205.444H208.695V186.039H211.338V208.036H182.951V190.927ZM219.416 188.78H216.849V208.258H214.131V186.039H222.058V237.883H219.416V188.78ZM208.695 218.479H185.669V233.366H182.875V215.738H211.338V235.143H214.131V213.294H182.875V210.702H216.849V237.883H208.695V218.479ZM250.784 195.667H268.828V188.631H236.742V190.927H266.261V193.594H234.024V185.965H271.546V198.334H253.502V232.995H250.784V195.667ZM245.726 198.334H234.024V195.667H248.444V235.143H255.994V200.63H258.711V237.883H245.726V198.334Z" fill="white"/>
<path d="M79.2621 267.426V259.451C79.2621 259.14 79.5039 258.977 79.7457 258.977C79.9874 258.977 80.2443 259.14 80.2443 259.451V266.907H83.2511C83.5836 266.907 83.7649 267.159 83.7649 267.411C83.7649 267.663 83.5836 267.9 83.2511 267.9H79.7608C79.4586 267.9 79.2621 267.663 79.2621 267.426ZM91.2835 267.441V259.451C91.2835 259.14 91.5253 258.977 91.767 258.977C92.0088 258.977 92.2657 259.14 92.2657 259.451V267.441C92.2657 268.078 91.2835 268.078 91.2835 267.441ZM100.389 265.291V261.719C100.389 259.584 101.582 258.947 103.335 258.947C104.786 258.947 106.191 259.673 106.191 261.17C106.191 261.497 105.949 261.66 105.692 261.66C105.435 261.66 105.179 261.497 105.179 261.17C105.179 260.414 104.332 259.91 103.335 259.91C101.96 259.91 101.386 260.459 101.386 261.719V265.291C101.386 266.581 102.111 266.981 103.335 266.981C104.786 266.981 105.299 266.299 105.299 264.98V264.357H103.94C103.622 264.357 103.456 264.12 103.456 263.868C103.456 263.616 103.622 263.364 103.94 263.364H105.828C106.13 263.364 106.297 263.661 106.297 263.868V264.98C106.297 267.114 105.451 267.945 103.335 267.945C101.341 267.945 100.389 267.233 100.389 265.291ZM114.359 267.426V259.451C114.359 259.14 114.601 258.991 114.858 258.991C115.115 258.991 115.372 259.14 115.372 259.451V262.845H118.802V259.451C118.802 259.14 119.043 258.977 119.285 258.977C119.527 258.977 119.784 259.14 119.784 259.451V267.426C119.784 267.737 119.527 267.9 119.285 267.9C119.043 267.9 118.802 267.737 118.802 267.426V263.853H115.372V267.426C115.372 267.737 115.115 267.9 114.858 267.9C114.601 267.9 114.359 267.737 114.359 267.426ZM127.892 258.977H132.455C132.772 258.977 132.923 259.229 132.923 259.481C132.923 259.733 132.772 259.97 132.455 259.97H130.732V267.426C130.732 267.737 130.475 267.9 130.219 267.9C129.962 267.9 129.72 267.737 129.72 267.426V259.97H127.892C127.574 259.97 127.423 259.733 127.423 259.481C127.423 259.229 127.574 258.977 127.892 258.977ZM155.259 267.5L154.669 265.617H151.859L151.3 267.47C151.103 268.108 150.106 267.915 150.318 267.263C151.103 264.669 151.874 262.03 152.645 259.406C152.735 259.125 152.977 258.977 153.219 258.977C153.445 258.977 153.687 259.125 153.778 259.406L156.18 267.263C156.346 267.826 155.455 268.137 155.259 267.5ZM153.249 260.978L152.161 264.624H154.382C154.004 263.379 153.657 262.312 153.249 260.978ZM163.85 266.625C163.518 266.018 164.364 265.573 164.757 266.181C164.953 266.492 165.542 267.025 166.479 267.025C166.872 267.025 167.854 266.744 167.99 265.647C168.081 264.98 167.431 264.328 166.313 263.779C164.741 263.053 163.548 262.416 163.548 261.141C163.548 259.629 164.847 258.917 166.237 258.917C167.491 258.917 168.187 259.673 168.428 260.059C168.776 260.607 168.02 261.141 167.597 260.607C167.386 260.34 166.978 259.896 166.237 259.896C165.406 259.896 164.545 260.281 164.545 261.141C164.545 261.823 165.316 262.208 166.464 262.742C167.809 263.394 169.214 264.031 169.002 265.766C168.836 267.129 167.779 268.004 166.479 268.004C165.497 268.004 164.288 267.485 163.85 266.625ZM187.077 267.426V259.451C187.077 259.14 187.319 258.977 187.56 258.977C187.802 258.977 188.059 259.14 188.059 259.451V266.907H191.066C191.398 266.907 191.58 267.159 191.58 267.411C191.58 267.663 191.398 267.9 191.066 267.9H187.575C187.273 267.9 187.077 267.663 187.077 267.426ZM199.098 267.441V259.451C199.098 259.14 199.34 258.977 199.582 258.977C199.824 258.977 200.08 259.14 200.08 259.451V267.441C200.08 268.078 199.098 268.078 199.098 267.441ZM208.203 265.291V261.719C208.203 259.584 209.397 258.947 211.15 258.947C212.6 258.947 214.006 259.673 214.006 261.17C214.006 261.497 213.764 261.66 213.507 261.66C213.25 261.66 212.993 261.497 212.993 261.17C212.993 260.414 212.147 259.91 211.15 259.91C209.775 259.91 209.201 260.459 209.201 261.719V265.291C209.201 266.581 209.926 266.981 211.15 266.981C212.6 266.981 213.114 266.299 213.114 264.98V264.357H211.754C211.437 264.357 211.271 264.12 211.271 263.868C211.271 263.616 211.437 263.364 211.754 263.364H213.643C213.945 263.364 214.111 263.661 214.111 263.868V264.98C214.111 267.114 213.265 267.945 211.15 267.945C209.155 267.945 208.203 267.233 208.203 265.291ZM222.174 267.426V259.451C222.174 259.14 222.416 258.991 222.673 258.991C222.929 258.991 223.186 259.14 223.186 259.451V262.845H226.616V259.451C226.616 259.14 226.858 258.977 227.1 258.977C227.342 258.977 227.598 259.14 227.598 259.451V267.426C227.598 267.737 227.342 267.9 227.1 267.9C226.858 267.9 226.616 267.737 226.616 267.426V263.853H223.186V267.426C223.186 267.737 222.929 267.9 222.673 267.9C222.416 267.9 222.174 267.737 222.174 267.426ZM235.706 258.977H240.27C240.587 258.977 240.738 259.229 240.738 259.481C240.738 259.733 240.587 259.97 240.27 259.97H238.547V267.426C238.547 267.737 238.29 267.9 238.033 267.9C237.776 267.9 237.535 267.737 237.535 267.426V259.97H235.706C235.389 259.97 235.238 259.733 235.238 259.481C235.238 259.229 235.389 258.977 235.706 258.977Z" fill="#71ADB5"/>
<defs>
<linearGradient id="paint0_linear" x1="-7.15272e-07" y1="148.666" x2="165.281" y2="-102.012" gradientUnits="userSpaceOnUse">
<stop stop-color="#171717"/>
<stop offset="0.4375" stop-color="#1D1D1D" stop-opacity="0.932292"/>
<stop offset="1" stop-color="#6F6F6F" stop-opacity="0"/>
</linearGradient>
</defs>
</svg>
